<svg width="341" height="208" viewBox="0 0 341 208" fill="none" xmlns="http://www.w3.org/2000/svg">
<path d="M150.305 59.2891C136.111 59.2891 123.364 65.3907 114.458 75.0732C105.538 65.3907 92.8045 59.2891 78.6104 59.2891C51.6702 59.2891 29.8232 81.136 29.8232 108.076C29.8232 108.076 29.7715 166.313 114.458 205.638C199.144 166.313 199.092 108.076 199.092 108.076C199.079 81.1231 177.245 59.2891 150.305 59.2891Z" fill="url(#paint0_linear_310_924)"/>
<path d="M114.444 207.565C114.16 207.565 113.889 207.5 113.63 207.384C69.4061 186.842 48.4512 161.053 38.6653 143.019C27.9745 123.344 27.8711 108.672 27.8711 108.064C27.8711 80.1027 50.6229 57.3379 78.5974 57.3379C92.0029 57.3379 104.956 62.7544 114.444 72.2559C123.946 62.7544 136.886 57.3379 150.292 57.3379C178.253 57.3379 201.018 80.0897 201.018 108.064C201.018 108.672 200.914 123.344 190.224 143.019C180.438 161.04 159.496 186.842 115.259 207.384C115.013 207.5 114.729 207.565 114.444 207.565ZM78.5974 61.229C52.7689 61.229 31.7492 82.2486 31.7492 108.077C31.7492 108.219 31.8915 122.556 42.1944 141.416C51.6571 158.752 71.8752 183.533 114.432 203.493C196.235 165.138 197.127 108.646 197.127 108.077C197.127 82.2486 176.107 61.229 150.279 61.229C137.274 61.229 124.722 66.7489 115.854 76.3796C115.492 76.7804 114.974 77.0001 114.432 77.0001C113.889 77.0001 113.371 76.7675 113.01 76.3796C104.154 66.7489 91.6021 61.229 78.5974 61.229Z" fill="#606060"/>
<path d="M118.568 103.901C117.779 104.004 117.12 104.444 116.706 105.039C116.138 104.573 115.388 104.328 114.599 104.431C113.113 104.638 112.066 106.008 112.259 107.495C112.259 107.495 112.699 110.714 117.676 112.265C122.071 109.447 121.632 106.228 121.632 106.228C121.438 104.741 120.055 103.694 118.568 103.901Z" fill="#606060"/>
<path d="M88.8744 129.393C94.6217 129.393 99.2808 124.734 99.2808 118.986C99.2808 113.239 94.6217 108.58 88.8744 108.58C83.1271 108.58 78.468 113.239 78.468 118.986C78.468 124.734 83.1271 129.393 88.8744 129.393Z" fill="#FF83B0"/>
<path d="M147.305 127.467C153.053 127.467 157.712 122.808 157.712 117.061C157.712 111.313 153.053 106.654 147.305 106.654C141.558 106.654 136.899 111.313 136.899 117.061C136.899 122.808 141.558 127.467 147.305 127.467Z" fill="#FF83B0"/>
<path d="M102.603 111.677C105.321 111.319 107.11 107.884 106.599 104.005C106.088 100.126 103.47 97.2722 100.752 97.6305C98.0337 97.9888 96.2449 101.424 96.7562 105.302C97.2676 109.181 99.8855 112.035 102.603 111.677Z" fill="#606060"/>
<path d="M136.873 105.399C136.757 105.399 136.627 105.387 136.511 105.361C132.335 104.572 128.457 104.598 128.406 104.585C128.406 104.585 128.406 104.585 128.393 104.585C127.708 104.585 127.061 104.223 126.712 103.628C126.363 103.034 126.363 102.284 126.699 101.689C128.806 97.9921 133.176 94.6052 133.357 94.463C134.21 93.8037 135.425 93.9718 136.071 94.8121C136.718 95.6523 136.576 96.8804 135.722 97.5268C135.697 97.5526 133.835 98.9875 132.116 100.875C133.576 100.991 135.36 101.198 137.196 101.547C138.243 101.741 138.941 102.762 138.747 103.809C138.605 104.753 137.791 105.399 136.873 105.399Z" fill="#606060"/>
<path d="M100.871 103.887C100.522 103.887 100.173 103.796 99.8627 103.602L93.5542 99.7243C92.6364 99.1684 92.352 97.9662 92.9208 97.0613C93.4767 96.1435 94.6789 95.8591 95.5838 96.4279L101.892 100.306C102.81 100.862 103.094 102.064 102.526 102.969C102.164 103.564 101.53 103.887 100.871 103.887Z" fill="#606060"/>
<path d="M113.863 122.605C105.163 122.605 99.3068 120.175 98.8802 119.994C97.8977 119.567 97.4452 118.43 97.8589 117.447C98.2855 116.465 99.4231 116.012 100.406 116.426C100.561 116.491 116.965 123.239 135.503 113C136.434 112.483 137.623 112.819 138.14 113.763C138.657 114.694 138.321 115.883 137.377 116.4C128.651 121.209 120.443 122.605 113.863 122.605Z" fill="#606060"/>
<path d="M139.42 119.259C138.58 119.259 137.817 118.716 137.558 117.876C136.511 114.36 133.809 112.227 133.784 112.201C132.93 111.555 132.762 110.339 133.422 109.486C134.068 108.633 135.283 108.465 136.136 109.124C136.291 109.241 139.859 112.007 141.281 116.777C141.592 117.798 140.997 118.884 139.976 119.194C139.795 119.233 139.614 119.259 139.42 119.259Z" fill="#606060"/>
<path d="M123.028 92.603C122.886 92.603 122.744 92.59 122.601 92.5512C121.554 92.3186 120.908 91.2715 121.141 90.2244C121.955 86.6177 125.497 79.7016 133.021 79.2492C134.068 79.1716 135.012 79.999 135.063 81.0719C135.128 82.1449 134.313 83.0627 133.24 83.1144C126.712 83.5022 124.928 91 124.915 91.0775C124.721 91.9954 123.92 92.603 123.028 92.603Z" fill="#606060"/>
<path d="M322.107 135.738H245.798C242.954 135.738 240.472 137.677 239.787 140.444L228.644 189.076H206.551C202.906 189.076 199.958 192.023 199.958 195.669C199.958 199.314 202.906 202.262 206.551 202.262H225.36H238.132H305.612C310.796 202.262 315.32 198.732 316.574 193.691L328.118 143.43C329.101 139.513 326.141 135.738 322.107 135.738Z" fill="#91A2B5"/>
<path d="M299.614 177.764L306.194 148.523C306.672 146.416 305.069 144.412 302.91 144.412H250.452C248.875 144.412 247.504 145.511 247.168 147.049L240.666 176.291C240.2 178.398 241.803 180.388 243.949 180.388H296.33C297.907 180.388 299.265 179.303 299.614 177.764Z" fill="#F9F9F9"/>
<path d="M296.33 182.406H243.95C242.308 182.406 240.782 181.669 239.748 180.389C238.727 179.11 238.339 177.455 238.688 175.852L245.191 146.611C245.746 144.129 247.905 142.396 250.452 142.396H302.91C304.552 142.396 306.091 143.133 307.112 144.413C308.133 145.693 308.521 147.361 308.159 148.963L301.579 178.205C301.023 180.674 298.864 182.406 296.33 182.406ZM250.452 146.417C249.818 146.417 249.263 146.856 249.133 147.477L242.631 176.718C242.502 177.274 242.747 177.675 242.902 177.856C243.058 178.05 243.394 178.36 243.962 178.36H296.343C296.977 178.36 297.52 177.92 297.662 177.3L304.242 148.059C304.371 147.503 304.126 147.102 303.983 146.921C303.828 146.727 303.492 146.417 302.923 146.417H250.452Z" fill="#606060"/>
<path d="M328.584 136.877C327.02 134.873 324.654 133.723 322.12 133.723H245.772H245.527C245.514 133.723 245.501 133.723 245.488 133.723C241.855 133.852 238.701 136.502 237.783 140.147C237.783 140.16 237.783 140.173 237.77 140.186L227.028 187.047H206.81C202.052 187.047 198.071 190.796 197.929 195.398C197.864 197.751 198.717 199.974 200.359 201.655C202.001 203.336 204.185 204.266 206.538 204.266H225.231C225.27 204.266 225.309 204.266 225.347 204.266H305.599C311.727 204.266 317.04 200.117 318.526 194.131L330.07 143.909C330.691 141.44 330.148 138.881 328.584 136.877ZM241.7 141.117C242.178 139.217 243.794 137.833 245.617 137.756H245.798H315.721L305.121 183.363C304.565 185.535 302.6 187.06 300.351 187.06H231.152L241.7 141.117ZM225.36 200.246H206.551C205.297 200.246 204.134 199.755 203.268 198.85C202.402 197.958 201.936 196.769 201.975 195.515C202.052 193.071 204.224 191.081 206.836 191.081H269.494C268.666 192.347 268.162 193.821 268.123 195.398C268.072 197.143 268.537 198.811 269.442 200.246H225.502C225.438 200.246 225.399 200.246 225.36 200.246ZM326.166 142.979L314.622 193.201C313.588 197.35 309.891 200.246 305.612 200.246H276.72C275.466 200.246 274.303 199.755 273.436 198.85C272.57 197.958 272.105 196.769 272.144 195.515C272.221 193.071 274.393 191.081 277.004 191.081H300.377C304.475 191.081 308.042 188.301 309.051 184.333C309.051 184.32 309.051 184.307 309.064 184.294L319.871 137.756H322.12C323.413 137.756 324.615 138.338 325.417 139.359C326.205 140.38 326.477 141.686 326.166 142.979Z" fill="#606060"/>
<path d="M339.029 87.4314C339.029 76.7924 330.406 68.1699 319.767 68.1699H233.608C222.969 68.1699 214.346 76.7924 214.346 87.4314C214.346 98.0705 222.969 106.693 233.608 106.693H308.999C308.999 113.958 311.882 119.853 315.45 119.853C319.005 119.853 321.9 113.958 321.9 106.693C321.9 106.654 321.9 106.615 321.9 106.577C331.518 105.517 339.029 97.3595 339.029 87.4314Z" fill="white"/>
<path d="M315.437 121.792C311.028 121.792 307.616 116.259 307.112 108.632H233.595C221.908 108.632 212.394 99.1172 212.394 87.4311C212.394 75.7449 221.908 66.2305 233.595 66.2305H319.754C331.441 66.2305 340.955 75.7449 340.955 87.4311C340.955 97.6952 333.677 106.356 323.775 108.257C323.348 116.116 319.909 121.792 315.437 121.792ZM233.608 70.1086C224.054 70.1086 216.285 77.8779 216.285 87.4311C216.285 96.9842 224.054 104.753 233.608 104.753H308.999C310.072 104.753 310.938 105.62 310.938 106.693C310.938 113.544 313.601 117.913 315.437 117.913C317.272 117.913 319.948 113.544 319.948 106.693C319.948 105.697 320.685 104.753 321.668 104.65C330.458 103.681 337.077 96.2862 337.077 87.4311C337.077 77.8779 329.308 70.1086 319.754 70.1086H233.608Z" fill="#606060"/>
<path d="M260.6 91.2047C261.634 92.3165 261.026 94.2297 259.113 94.0875H251.292C249.986 94.0875 249.327 93.5316 249.327 92.4199C249.34 91.2047 250.064 90.804 251.292 90.7911H253.115V82.6469C252.585 82.8926 251.124 83.9914 250.516 83.9267C248.991 83.9138 248.37 81.4576 249.767 80.7466L253.373 78.6524C254.912 77.6312 257.29 77.9673 257.251 80.1003V90.7911C258.105 90.8428 260.031 90.6101 260.6 91.2047Z" fill="#00D4D7"/>
<path d="M263.353 92.1992C262.319 90.803 261.802 88.7864 261.802 86.1363C261.828 81.6247 263.289 78.0698 267.865 77.9922C272.415 78.0698 273.915 81.6376 273.928 86.1363C273.928 88.7864 273.411 90.803 272.376 92.1992C270.515 94.9914 265.215 94.9914 263.353 92.1992ZM269.416 89.9886C270.05 88.683 270.05 83.6155 269.416 82.2969C268.873 80.7327 266.844 80.7328 266.301 82.284C265.719 83.8094 265.086 91.3072 267.852 91.1521C268.589 91.165 269.106 90.7642 269.416 89.9886Z" fill="#00D4D7"/>
<path d="M276.875 92.1992C275.841 90.803 275.324 88.7864 275.324 86.1363C275.35 81.6247 276.81 78.0698 281.387 77.9922C285.937 78.0698 287.437 81.6376 287.449 86.1363C287.449 88.7864 286.932 90.803 285.898 92.1992C284.037 94.9914 278.737 94.9914 276.875 92.1992ZM282.951 89.9886C283.584 88.683 283.584 83.6155 282.951 82.2969C282.408 80.7327 280.378 80.7328 279.835 82.284C279.254 83.8094 278.62 91.3072 281.387 91.1521C282.111 91.165 282.628 90.7642 282.951 89.9886Z" fill="#00D4D7"/>
<path d="M290.409 92.1992C289.375 90.803 288.858 88.7864 288.858 86.1363C288.884 81.6247 290.345 78.0698 294.921 77.9922C299.471 78.0698 300.971 81.6376 300.984 86.1363C300.984 88.7864 300.467 90.803 299.433 92.1992C297.571 94.9914 292.271 94.9914 290.409 92.1992ZM296.472 89.9886C297.106 88.683 297.106 83.6155 296.472 82.2969C295.929 80.7327 293.9 80.7328 293.357 82.284C292.775 83.8094 292.142 91.3072 294.908 91.1521C295.645 91.165 296.162 90.7642 296.472 89.9886Z" fill="#00D4D7"/>
<path d="M303.931 92.1992C302.897 90.803 302.38 88.7864 302.38 86.1363C302.406 81.6247 303.867 78.0698 308.443 77.9922C312.993 78.0698 314.493 81.6376 314.506 86.1363C314.506 88.7864 313.989 90.803 312.955 92.1992C311.093 94.9914 305.793 94.9914 303.931 92.1992ZM310.007 89.9886C310.641 88.683 310.641 83.6155 310.007 82.2969C309.464 80.7327 307.435 80.7328 306.892 82.284C306.31 83.8094 305.677 91.3072 308.443 91.1521C309.167 91.165 309.684 90.7642 310.007 89.9886Z" fill="#00D4D7"/>
<path d="M317.466 92.1992C316.432 90.803 315.915 88.7864 315.915 86.1363C315.941 81.6247 317.401 78.0698 321.978 77.9922C326.528 78.0698 328.028 81.6376 328.041 86.1363C328.041 88.7864 327.523 90.803 326.489 92.1992C324.628 94.9914 319.328 94.9914 317.466 92.1992ZM323.529 89.9886C324.162 88.683 324.162 83.6155 323.529 82.2969C322.986 80.7327 320.956 80.7328 320.413 82.284C319.832 83.8094 319.198 91.3072 321.965 91.1521C322.689 91.165 323.219 90.7642 323.529 89.9886Z" fill="#00D4D7"/>
<path d="M245.164 89.589L238.959 95.7941C236.826 97.927 233.362 97.927 231.242 95.7941L225.037 89.589C223.796 88.3092 223.188 86.6675 223.188 85.0128C223.188 83.2935 223.86 81.5742 225.192 80.2814C227.803 77.7606 231.966 77.8123 234.5 80.4236L235.107 81.0571L235.715 80.4236C237.007 79.0921 238.714 78.4199 240.433 78.4199C242.088 78.4199 243.73 79.0404 245.009 80.2685C247.634 82.8022 247.698 86.9648 245.164 89.589Z" fill="#FD80A6"/>
<path d="M115.324 131.966C125.562 132.031 133.848 135.159 133.823 138.947L133.59 175.479C133.564 179.266 125.239 182.278 115.001 182.214C104.762 182.149 96.4759 179.021 96.5018 175.233L96.7345 138.701C96.7603 134.913 105.073 131.901 115.324 131.966Z" fill="#65E1E9"/>
<path d="M115.324 184.088C115.207 184.088 115.091 184.088 114.975 184.088C104.827 184.024 94.5756 180.96 94.6144 175.233L94.8471 138.701C94.8729 135.275 98.5055 133.246 101.543 132.147C105.176 130.828 109.933 130.117 114.975 130.117C115.091 130.117 115.207 130.117 115.324 130.117C125.472 130.182 135.723 133.246 135.684 138.972L135.451 175.505C135.425 178.93 131.793 180.96 128.755 182.059C125.123 183.364 120.365 184.088 115.324 184.088ZM114.975 133.84C110.36 133.84 106.055 134.487 102.823 135.65C99.9274 136.697 98.5959 137.977 98.5959 138.714L98.3633 175.246C98.3503 176.939 104.219 180.262 115.001 180.339C119.745 180.365 124.166 179.732 127.475 178.53C130.371 177.482 131.702 176.203 131.702 175.466L131.935 138.934C131.948 137.24 126.079 133.918 115.298 133.84C115.194 133.84 115.091 133.84 114.975 133.84Z" fill="#00D4D7"/>
<path d="M115.311 147.646C115.207 147.646 115.091 147.646 114.987 147.646C110.334 147.62 105.822 146.961 102.28 145.797C101.298 145.474 100.768 144.414 101.078 143.431C101.401 142.449 102.461 141.919 103.443 142.229C106.624 143.276 110.734 143.858 115.013 143.884C115.117 143.884 115.22 143.884 115.324 143.884C119.641 143.884 123.726 143.315 126.88 142.281C127.863 141.958 128.923 142.488 129.246 143.47C129.569 144.453 129.039 145.513 128.057 145.836C124.515 147.012 120.016 147.646 115.311 147.646Z" fill="#00D4D7"/>
<path d="M115.414 118.145C119.486 118.171 122.77 119.412 122.77 120.911L122.679 135.092C122.666 136.592 119.357 137.794 115.298 137.768C111.226 137.743 107.942 136.502 107.942 135.002L108.033 120.821C108.033 119.308 111.342 118.119 115.414 118.145Z" fill="white"/>
<path d="M115.414 139.644C115.363 139.644 115.324 139.644 115.272 139.644C110.67 139.618 106.042 138.157 106.055 134.99L106.145 120.809C106.171 117.668 110.722 116.271 115.272 116.271C115.324 116.271 115.375 116.271 115.414 116.271C117.599 116.284 119.68 116.621 121.27 117.228C124.205 118.34 124.631 120.02 124.631 120.938L124.541 135.119C124.541 136.024 124.088 137.705 121.141 138.778C119.577 139.334 117.547 139.644 115.414 139.644ZM109.804 134.719C110.36 135.158 112.338 135.882 115.298 135.895C118.258 135.921 120.249 135.223 120.805 134.783L120.895 121.184C120.339 120.744 118.362 120.02 115.401 120.007C115.363 120.007 115.324 120.007 115.285 120.007C112.389 120.007 110.45 120.68 109.907 121.119L109.804 134.719Z" fill="#E3E3E3"/>
<path d="M67.118 132.846C66.9241 136.285 63.9896 138.909 60.551 138.728C57.1124 138.534 54.4881 135.599 54.6691 132.161C54.6691 132.135 54.6691 132.109 54.682 132.096C50.5324 131.359 47.4816 127.623 47.7272 123.306C47.9599 118.988 51.3985 115.614 55.6128 115.343C55.6128 115.317 55.6128 115.291 55.6128 115.252C55.8067 111.813 58.7412 109.189 62.1798 109.37C65.6184 109.564 68.2427 112.499 68.0617 115.937L67.118 132.846Z" fill="white"/>
<path d="M60.9 140.602C60.7449 140.602 60.6027 140.602 60.4475 140.589C56.4918 140.369 53.3505 137.344 52.8593 133.543C48.5287 132.083 45.5942 127.881 45.8527 123.189C46.1113 118.509 49.4853 114.644 53.9452 113.674C54.8501 109.951 58.3016 107.275 62.2703 107.495C66.7301 107.741 70.1558 111.567 69.9102 116.027C69.8585 117.061 68.9665 117.85 67.9324 117.798C66.8982 117.746 66.1096 116.854 66.1614 115.82C66.2906 113.416 64.455 111.36 62.0505 111.231C59.659 111.102 57.6165 112.924 57.4614 115.303C57.4614 115.342 57.4614 115.381 57.4614 115.419C57.4226 116.376 56.6599 117.139 55.7162 117.203C52.4068 117.423 49.7697 120.086 49.5758 123.408C49.3948 126.731 51.7217 129.665 54.9923 130.247C55.923 130.415 56.5823 131.255 56.5306 132.199C56.5306 132.225 56.5306 132.264 56.5177 132.302C56.466 133.466 56.8667 134.565 57.6294 135.418C58.405 136.284 59.478 136.801 60.6414 136.866C63.0459 136.995 65.1013 135.159 65.2306 132.755C65.2823 131.721 66.1743 130.932 67.2085 130.984C68.2426 131.035 69.0312 131.927 68.9795 132.962C68.7468 137.266 65.166 140.602 60.9 140.602Z" fill="#E3E3E3"/>
<path d="M74.2152 124.341C74.1118 124.341 74.0213 124.328 73.9179 124.315L61.6888 122.363C60.6675 122.195 59.9695 121.238 60.1375 120.217C60.3056 119.196 61.2622 118.498 62.2834 118.666L74.5126 120.618C75.5338 120.786 76.2319 121.742 76.0638 122.764C75.9216 123.681 75.1201 124.341 74.2152 124.341Z" fill="#E3E3E3"/>
<path d="M62.9945 129.911C62.0379 129.911 61.2106 129.174 61.133 128.191C61.0425 127.157 61.8052 126.252 62.8394 126.175L71.3326 125.451C72.3667 125.36 73.2716 126.123 73.3492 127.157C73.4397 128.191 72.677 129.096 71.6428 129.174L63.1497 129.898C63.0979 129.911 63.0462 129.911 62.9945 129.911Z" fill="#E3E3E3"/>
<path d="M59.8399 49.2967C59.2452 48.4694 58.3016 47.9652 57.2803 47.9394L28.9698 47.1379C27.4961 47.0991 26.1775 48.0428 25.7509 49.4518L19.2227 70.7817C18.6151 70.3422 17.9558 69.9802 17.2319 69.7604C12.6169 68.3514 7.31673 72.2683 5.40351 78.5121C3.49029 84.7689 5.68791 90.974 10.3029 92.396C14.9179 93.805 20.2181 89.8881 22.1313 83.6442L31.2837 53.7566L52.8075 54.3771L47.5332 71.5961C46.9256 71.1566 46.2663 70.7946 45.5424 70.5749C40.9274 69.1658 35.6273 73.0827 33.714 79.3266C31.8008 85.5833 33.9855 91.7884 38.6134 93.2104C43.2285 94.6194 48.5286 90.7025 50.4418 84.4587L60.3311 52.1795C60.6026 51.1841 60.4346 50.1241 59.8399 49.2967Z" fill="#65E1E9"/>
<path d="M17.5034 16.1118V41.5138C17.5034 48.0549 13.5865 53.3551 8.75171 53.3551C3.91694 53.3551 0 48.0549 0 41.5138C0 34.9726 3.91694 29.6725 8.75171 29.6725C9.51441 29.6725 10.2513 29.8147 10.9493 30.0603V7.74795C10.9493 6.27425 11.9318 4.98153 13.3538 4.59371L29.7584 0.0821267C31.1545 -0.305689 32.5248 0.728487 32.5636 2.1634C32.5894 2.97782 32.1499 3.75345 31.4389 4.15419L24.3548 8.14869C24.5875 11.1737 22.8294 14.0047 19.9984 15.1164L17.5034 16.1118Z" fill="#FF7AA8"/>
<path d="M79.0629 194.845C83.5099 203.183 92.8433 206.893 99.9016 203.131C106.96 199.37 109.067 189.545 104.62 181.207C100.173 172.869 90.8396 169.159 83.7814 172.921C76.7231 176.682 74.616 186.494 79.0629 194.845Z" fill="url(#paint1_linear_310_924)"/>
<path d="M93.9679 206.53C87.556 206.53 80.9631 202.535 77.3565 195.762C72.4053 186.493 74.8744 175.479 82.8634 171.213C86.7804 169.119 91.4083 168.938 95.894 170.722C100.251 172.454 103.961 175.854 106.339 180.288C111.29 189.556 108.821 200.57 100.832 204.836C98.6605 205.987 96.3336 206.53 93.9679 206.53ZM80.7692 193.926C84.712 201.307 92.882 204.668 98.9836 201.411C105.085 198.153 106.843 189.492 102.901 182.11C100.961 178.478 97.9624 175.711 94.4462 174.315C91.0463 172.971 87.5819 173.074 84.6862 174.626C78.5845 177.883 76.8264 186.544 80.7692 193.926Z" fill="#606060"/>
<path d="M151.933 194.845C147.486 203.183 138.152 206.893 131.094 203.131C124.036 199.37 121.929 189.545 126.376 181.207C130.823 172.869 140.156 169.159 147.214 172.921C154.273 176.682 156.393 186.494 151.933 194.845Z" fill="url(#paint2_linear_310_924)"/>
<path d="M137.028 206.53C134.662 206.53 132.335 205.987 130.176 204.836C122.187 200.57 119.718 189.556 124.669 180.288C127.035 175.854 130.745 172.454 135.102 170.722C139.574 168.938 144.202 169.119 148.132 171.213C156.121 175.479 158.59 186.493 153.639 195.762C150.033 202.522 143.44 206.53 137.028 206.53ZM141.255 173.385C139.717 173.385 138.114 173.695 136.537 174.328C133.02 175.724 130.021 178.491 128.082 182.123C124.139 189.505 125.898 198.166 131.999 201.424C138.101 204.681 146.271 201.32 150.214 193.939C154.156 186.557 152.398 177.896 146.297 174.638C144.745 173.798 143.039 173.385 141.255 173.385Z" fill="#606060"/>
<path d="M84.453 141.002C84.453 141.002 87.2582 148.37 96.5528 151.473C107.593 155.157 110.605 159.165 108.872 165.421C106.675 173.307 89.3524 175.065 77.3818 157.613" fill="url(#paint3_linear_310_924)"/>
<path d="M99.0996 173.087C92.3646 173.087 83.1216 169.416 75.779 158.699C75.1714 157.82 75.4041 156.605 76.2831 155.997C77.1622 155.39 78.3774 155.622 78.9849 156.502C86.3664 167.257 95.5705 169.972 101.207 169.041C104.258 168.537 106.429 166.985 107.011 164.904C108.071 161.091 108.019 157.342 95.9454 153.321C85.901 149.973 82.7855 142.036 82.6562 141.7C82.2814 140.705 82.7726 139.58 83.7809 139.192C84.7763 138.817 85.901 139.308 86.2759 140.304C86.3922 140.588 88.9518 146.897 97.1735 149.637C105.369 152.365 113.384 156.437 110.747 165.938C109.752 169.519 106.429 172.105 101.853 172.867C100.987 173.01 100.069 173.087 99.0996 173.087Z" fill="#606060"/>
<path d="M146.543 141.002C146.543 141.002 143.738 148.37 134.443 151.473C123.403 155.157 120.391 159.165 122.123 165.421C124.321 173.307 141.643 175.065 153.614 157.613" fill="url(#paint4_linear_310_924)"/>
<path d="M131.896 173.087C130.927 173.087 130.009 173.01 129.156 172.867C124.58 172.105 121.244 169.519 120.262 165.938C117.625 156.437 125.64 152.365 133.835 149.637C142.07 146.897 144.63 140.575 144.733 140.304C145.121 139.308 146.245 138.817 147.241 139.192C148.236 139.58 148.74 140.692 148.353 141.687C148.223 142.023 145.108 149.96 135.063 153.309C122.989 157.329 122.938 161.091 123.998 164.891C124.58 166.973 126.738 168.524 129.802 169.028C135.438 169.959 144.655 167.244 152.024 156.489C152.632 155.61 153.834 155.377 154.726 155.984C155.605 156.592 155.837 157.794 155.23 158.686C147.874 169.416 138.631 173.087 131.896 173.087Z" fill="#606060"/>
<path d="M110.463 131.938C110.463 131.938 99.0482 132.636 87.8274 138.454C85.2807 139.772 82.1394 138.57 81.0794 135.907C78.2742 128.862 79.6057 122.424 81.2604 118.21C82.3204 115.508 85.5134 114.306 88.073 115.663C99.1774 121.584 110.515 122.424 110.515 122.424C110.515 122.424 114.134 126.793 110.463 131.938Z" fill="#FFFF9D"/>
<path d="M85.6296 140.859C84.841 140.859 84.0395 140.717 83.2768 140.433C81.4799 139.761 80.0579 138.365 79.3469 136.593C76.3091 128.954 77.7698 122.012 79.5279 117.526C80.226 115.729 81.6738 114.32 83.4836 113.648C85.2805 112.988 87.2842 113.118 88.9648 114.01C99.578 119.659 110.566 120.551 110.67 120.551C111.174 120.59 111.652 120.835 111.975 121.223C113.539 123.123 115.556 128.023 111.988 133.013C111.665 133.478 111.148 133.762 110.579 133.788C110.424 133.801 99.3841 134.551 88.6933 140.097C87.7367 140.614 86.6896 140.859 85.6296 140.859ZM85.8235 116.97C85.4744 116.97 85.1254 117.035 84.7764 117.164C83.9619 117.461 83.3156 118.095 83.0053 118.896C81.4929 122.748 80.2389 128.721 82.8244 135.223C83.1346 136.012 83.781 136.645 84.5825 136.943C85.3839 137.24 86.2242 137.188 86.974 136.8C96.6564 131.785 106.352 130.466 109.39 130.156C110.915 127.493 110.062 125.256 109.467 124.209C106.481 123.873 96.8245 122.451 87.1937 117.319C86.7671 117.086 86.3018 116.97 85.8235 116.97Z" fill="#FFCC6B"/>
<path d="M86.2892 133.659C86.0565 133.659 85.8108 133.607 85.5782 133.517C84.6215 133.116 84.1691 132.03 84.5569 131.074C86.5348 126.304 84.8284 123.395 84.7637 123.266C84.2079 122.4 84.4664 121.249 85.3325 120.693C86.1987 120.137 87.3621 120.396 87.9309 121.275C88.0472 121.456 90.7749 125.838 88.0214 132.509C87.7241 133.22 87.026 133.659 86.2892 133.659Z" fill="#FFCC6B"/>
<defs>
<linearGradient id="paint0_linear_310_924" x1="114.449" y1="59.2844" x2="114.449" y2="205.626" gradientUnits="userSpaceOnUse">
<stop stop-color="#F37D9F"/>
<stop offset="0.0613" stop-color="#F68BAA"/>
<stop offset="0.1675" stop-color="#FA9CB7"/>
<stop offset="0.2997" stop-color="#FDA7C0"/>
<stop offset="0.4851" stop-color="#FFAEC6"/>
<stop offset="1" stop-color="#FFB0C7"/>
</linearGradient>
<linearGradient id="paint1_linear_310_924" x1="91.8412" y1="204.599" x2="91.8412" y2="171.444" gradientUnits="userSpaceOnUse">
<stop stop-color="#F37D9F"/>
<stop offset="0.0313" stop-color="#F480A1"/>
<stop offset="0.4068" stop-color="#FA9AB6"/>
<stop offset="0.7416" stop-color="#FEAAC3"/>
<stop offset="1" stop-color="#FFB0C7"/>
</linearGradient>
<linearGradient id="paint2_linear_310_924" x1="139.157" y1="204.599" x2="139.157" y2="171.444" gradientUnits="userSpaceOnUse">
<stop stop-color="#F37D9F"/>
<stop offset="0.0313" stop-color="#F480A1"/>
<stop offset="0.4068" stop-color="#FA9AB6"/>
<stop offset="0.7416" stop-color="#FEAAC3"/>
<stop offset="1" stop-color="#FFB0C7"/>
</linearGradient>
<linearGradient id="paint3_linear_310_924" x1="100.97" y1="172.181" x2="83.3415" y2="141.649" gradientUnits="userSpaceOnUse">
<stop stop-color="#F37D9F"/>
<stop offset="0.1961" stop-color="#F892AF"/>
<stop offset="0.4306" stop-color="#FCA3BD"/>
<stop offset="0.6864" stop-color="#FEADC4"/>
<stop offset="1" stop-color="#FFB0C7"/>
</linearGradient>
<linearGradient id="paint4_linear_310_924" x1="126.058" y1="170.513" x2="151.054" y2="145.517" gradientUnits="userSpaceOnUse">
<stop stop-color="#F37D9F"/>
<stop offset="0.1961" stop-color="#F892AF"/>
<stop offset="0.4306" stop-color="#FCA3BD"/>
<stop offset="0.6864" stop-color="#FEADC4"/>
<stop offset="1" stop-color="#FFB0C7"/>
</linearGradient>
</defs>
</svg>
