<svg width="246" height="200" viewBox="0 0 246 200" fill="none" xmlns="http://www.w3.org/2000/svg">
<path d="M118.011 3.33415C103.161 6.6449 91.2619 15.9815 84.1833 28.1856C72.6026 20.1373 57.8635 16.7157 43.0136 20.0264C14.8375 26.3016 -2.93525 54.2283 3.33995 82.4044C3.33995 82.4044 16.8323 143.328 114.576 164.758C194.006 103.917 180.389 43.0078 180.389 43.0078C174.114 14.8317 146.187 -2.92719 118.011 3.33415Z" fill="url(#paint0_linear_310_858)"/>
<path d="M114.576 166.836C114.424 166.836 114.285 166.822 114.133 166.795C63.0864 155.602 35.1735 133.493 20.7392 116.926C4.97502 98.8203 1.45648 83.4994 1.3041 82.8622C-5.20659 53.6056 13.3004 24.5153 42.5569 18.0047C56.5757 14.8878 71.384 17.5337 83.5327 25.2634C91.2486 13.1147 103.536 4.42918 117.555 1.31236C131.739 -1.83217 146.285 0.7167 158.53 8.50182C170.776 16.2869 179.267 28.394 182.412 42.5652C182.551 43.2024 185.847 58.5649 179.254 81.6432C173.214 102.768 157.311 134.629 115.823 166.407C115.477 166.684 115.019 166.836 114.576 166.836ZM54.2346 20.8721C50.6329 20.8721 47.0174 21.26 43.4573 22.0496C16.4449 28.0616 -0.649105 54.9355 5.36289 81.9479C5.3906 82.1003 8.88143 97.061 24.0499 114.391C37.9856 130.321 64.901 151.543 114.064 162.514C153.945 131.734 169.308 101.092 175.181 80.7704C181.567 58.648 178.381 43.618 178.353 43.4656C175.444 30.375 167.604 19.2098 156.3 12.0065C144.982 4.81705 131.546 2.44827 118.455 5.37115C104.852 8.40485 93.0078 17.0904 85.9707 29.2391C85.6798 29.7377 85.195 30.0979 84.627 30.2226C84.0591 30.3473 83.4634 30.2364 82.9924 29.904C74.487 23.9889 64.4024 20.8721 54.2346 20.8721Z" fill="#606060"/>
<path d="M95.2108 57.4028C94.4073 57.6937 93.8255 58.3032 93.5208 59.0373C92.8143 58.6772 91.9831 58.6079 91.1797 58.8988C89.6698 59.4529 88.894 61.1429 89.4481 62.6529C89.4481 62.6529 90.6533 65.9221 96.222 66.3792C100.156 62.4174 98.951 59.1482 98.951 59.1482C98.3969 57.6105 96.7207 56.8348 95.2108 57.4028Z" fill="#606060"/>
<path d="M67.6579 91.2283C73.8166 91.2283 78.8092 86.2357 78.8092 80.0771C78.8092 73.9184 73.8166 68.9258 67.6579 68.9258C61.4992 68.9258 56.5066 73.9184 56.5066 80.0771C56.5066 86.2357 61.4992 91.2283 67.6579 91.2283Z" fill="#FF83B0"/>
<path d="M128.318 75.617C134.477 75.617 139.47 70.6244 139.47 64.4657C139.47 58.3071 134.477 53.3145 128.318 53.3145C122.16 53.3145 117.167 58.3071 117.167 64.4657C117.167 70.6244 122.16 75.617 128.318 75.617Z" fill="#FF83B0"/>
<path d="M80.3174 69.2331C83.0769 68.2255 84.1482 64.2162 82.7101 60.2782C81.2721 56.3402 77.8694 53.9647 75.1099 54.9723C72.3504 55.98 71.2792 59.9893 72.7172 63.9273C74.1552 67.8653 77.558 70.2408 80.3174 69.2331Z" fill="#606060"/>
<path d="M105.198 55.8778C104.63 55.8778 104.076 55.6423 103.674 55.2128C103.175 54.6726 102.995 53.8968 103.217 53.1904C104.561 48.8407 108.342 44.2693 108.495 44.0893C109.229 43.2027 110.545 43.0919 111.418 43.8261C112.304 44.5602 112.415 45.8762 111.681 46.7489C111.653 46.7766 110.046 48.716 108.689 51.0848C110.254 50.8631 112.152 50.6692 114.16 50.5999C115.283 50.5722 116.266 51.4588 116.308 52.6086C116.349 53.7583 115.449 54.7141 114.299 54.7557C109.755 54.9081 105.683 55.8223 105.641 55.8362C105.516 55.8639 105.364 55.8778 105.198 55.8778Z" fill="#606060"/>
<path d="M76.246 61.5574C76.0244 61.5574 75.7889 61.5159 75.5672 61.4466L68.073 58.8562C66.9925 58.4821 66.4107 57.3047 66.7847 56.2103C67.1587 55.1298 68.3362 54.548 69.4306 54.922L76.9248 57.5125C78.0053 57.8865 78.5871 59.064 78.2131 60.1583C77.9083 61.0172 77.1049 61.5574 76.246 61.5574Z" fill="#606060"/>
<path d="M84.1005 79.2338C80.7482 79.2338 78.6287 78.8598 78.3655 78.8044C77.2435 78.5966 76.4955 77.5023 76.7032 76.3802C76.911 75.2582 77.9915 74.5101 79.1274 74.7179C79.3075 74.7456 98.0361 77.9871 115.033 62.971C115.892 62.2091 117.208 62.2922 117.97 63.151C118.732 64.0099 118.649 65.3259 117.79 66.0878C104.99 77.3914 91.5116 79.2338 84.1005 79.2338Z" fill="#606060"/>
<path d="M120.145 68.649C119.411 68.649 118.704 68.2611 118.33 67.5823C116.418 64.133 113.08 62.54 113.052 62.5261C112.013 62.0413 111.57 60.8084 112.055 59.7695C112.54 58.7306 113.759 58.2734 114.812 58.7583C114.992 58.8414 119.369 60.9054 121.973 65.5599C122.527 66.5572 122.167 67.8317 121.17 68.3858C120.837 68.5659 120.491 68.649 120.145 68.649Z" fill="#606060"/>
<path d="M96.7897 44.588C95.6399 44.588 94.7118 43.646 94.7118 42.4963C94.7256 38.5345 96.8174 30.4723 104.589 28.2559C105.697 27.9373 106.847 28.5745 107.151 29.6827C107.47 30.7909 106.833 31.9407 105.725 32.2454C98.9784 34.1709 98.8675 42.427 98.8675 42.5101C98.8675 43.6737 97.9394 44.588 96.7897 44.588Z" fill="#606060"/>
<path d="M81.1223 94.8331C81.1223 94.8331 71.287 96.7171 60.6621 88.364C52.1566 81.6732 37.8331 83.6126 39.9941 97.0634C42.1551 110.514 62.8508 111.664 74.4176 110.542" fill="url(#paint1_linear_310_858)"/>
<path d="M67.4499 112.953C53.7636 112.953 39.8002 108.991 37.944 97.3823C36.6557 89.4032 40.6037 85.7739 43.0833 84.3194C48.3334 81.2302 56.2709 82.2415 61.9504 86.7297C71.7164 94.4178 80.6513 92.8109 80.7344 92.7971C81.8565 92.5755 82.9508 93.3235 83.1725 94.4455C83.3941 95.5676 82.6461 96.662 81.524 96.8836C81.0807 96.9667 70.6221 98.8507 59.3877 89.9989C55.0519 86.5912 48.9567 85.6907 45.1888 87.9072C42.4738 89.514 41.3794 92.5616 42.0582 96.7312C43.9144 108.298 63.1556 109.545 74.2237 108.464C75.3735 108.367 76.3847 109.185 76.4956 110.334C76.6064 111.47 75.7752 112.495 74.6255 112.606C72.2844 112.828 69.8602 112.953 67.4499 112.953Z" fill="#606060"/>
<path d="M104.117 156.516L102.164 141.292L76.5786 110.525C76.5786 110.525 72.0765 119.363 73.8081 127.841C75.5397 136.333 81.4963 144.478 79.8201 152.873C78.324 152.152 76.6479 151.737 74.8747 151.737H74.0713C67.81 151.737 62.7261 156.821 62.7261 163.082V173.734C62.7261 181.256 68.8212 187.365 76.3431 187.365H76.4539C81.8426 187.365 86.2061 183.002 86.2061 177.613L86.1645 171.31L93.2155 170.465C100.114 169.648 104.99 163.373 104.117 156.516Z" fill="url(#paint2_linear_310_858)"/>
<path d="M79.7921 174.151C78.7532 174.151 77.8528 173.375 77.7281 172.322C77.5896 171.186 78.4068 170.147 79.5428 170.009L92.9797 168.402C95.7502 168.069 98.216 166.67 99.9337 164.482C101.651 162.279 102.399 159.55 102.039 156.78L100.086 141.556C99.9475 140.42 100.751 139.381 101.887 139.228C103.023 139.09 104.062 139.893 104.214 141.029L106.167 156.253C106.666 160.132 105.613 163.955 103.217 167.044C100.82 170.12 97.3571 172.073 93.4784 172.544L80.0414 174.151C79.9583 174.151 79.8752 174.151 79.7921 174.151Z" fill="#606060"/>
<path d="M185.016 80.9775C182.939 80.8667 181.249 79.2459 181.068 77.1681L179.739 62.3459C179.517 59.8108 181.581 57.6637 184.116 57.7884L188.313 58.01C190.862 58.1485 192.691 60.4896 192.206 62.9969L189.338 77.6113C188.937 79.6477 187.094 81.0883 185.016 80.9775Z" fill="#FFCC6B"/>
<path d="M193.744 86.0217C192.137 84.7057 191.735 82.3923 192.816 80.6192L200.531 67.8887C201.847 65.7139 204.798 65.2152 206.765 66.8221L210.02 69.4817C211.987 71.1025 212.071 74.0808 210.201 75.7985L199.229 85.8693C197.678 87.2822 195.351 87.3377 193.744 86.0217Z" fill="#FFCC6B"/>
<path d="M175.818 85.0925C177.564 83.9428 178.187 81.6987 177.301 79.8147L170.942 66.3501C169.848 64.0505 166.981 63.2471 164.861 64.6462L161.356 66.9596C159.237 68.3587 158.835 71.3231 160.525 73.2209L170.388 84.3722C171.774 85.9375 174.087 86.2423 175.818 85.0925Z" fill="#FFCC6B"/>
<path d="M106.985 139.839L116.695 173.612L116.682 173.557L121.184 189.238L139.497 167.06L130.922 137.221C130.922 137.221 134.08 125.433 129.232 110.361" fill="#FFB0C7"/>
<path d="M121.198 191.315C121.059 191.315 120.921 191.301 120.768 191.273C120.02 191.121 119.411 190.553 119.189 189.819L114.715 174.248C114.715 174.235 114.701 174.221 114.701 174.193L104.99 140.421C104.672 139.312 105.309 138.163 106.417 137.844C107.512 137.525 108.675 138.163 108.994 139.271L118.677 172.932C118.677 172.946 118.691 172.96 118.691 172.988L122.112 184.873L137.211 166.574L128.941 137.789C128.831 137.428 128.831 137.041 128.928 136.68C128.955 136.57 131.85 125.238 127.265 110.998C126.919 109.903 127.515 108.74 128.609 108.38C129.703 108.033 130.867 108.629 131.227 109.723C135.66 123.479 133.679 134.519 133.083 137.165L141.506 166.477C141.7 167.142 141.547 167.849 141.118 168.375L122.805 190.553C122.389 191.038 121.807 191.315 121.198 191.315Z" fill="#606060"/>
<path d="M106.985 139.836L116.695 173.608L116.682 173.553L121.184 189.234C122.985 195.495 129.523 199.125 135.798 197.324L144.248 194.9C150.496 193.099 154.097 186.588 152.31 180.341L152.172 179.842C149.761 171.434 140.979 166.585 132.584 169.009L127.376 170.505" fill="url(#paint3_linear_310_858)"/>
<path d="M132.515 199.86C130.188 199.86 127.903 199.278 125.811 198.114C122.569 196.314 120.214 193.363 119.189 189.803L114.715 174.233C114.715 174.219 114.701 174.205 114.701 174.177L104.99 140.405C104.672 139.297 105.309 138.147 106.417 137.828C107.512 137.51 108.675 138.147 108.994 139.255L118.677 172.917C118.677 172.93 118.691 172.944 118.691 172.972L123.193 188.653C123.913 191.147 125.561 193.224 127.833 194.471C130.105 195.732 132.737 196.023 135.231 195.302L143.681 192.878C146.174 192.158 148.224 190.523 149.485 188.251C150.745 185.98 151.036 183.375 150.316 180.882L150.177 180.383C149.166 176.851 146.839 173.928 143.625 172.155C140.411 170.382 136.699 169.952 133.167 170.977L127.958 172.473C126.864 172.792 125.7 172.155 125.381 171.046C125.063 169.938 125.7 168.789 126.808 168.47L132.017 166.974C141.506 164.245 151.452 169.744 154.181 179.233L154.319 179.732C155.344 183.292 154.915 187.032 153.128 190.26C151.341 193.488 148.39 195.843 144.83 196.868L136.38 199.292C135.106 199.68 133.804 199.86 132.515 199.86Z" fill="#606060"/>
<path d="M129.495 193.435C129.107 193.435 128.706 193.325 128.345 193.089C127.39 192.452 127.126 191.164 127.764 190.208C132.82 182.561 145.37 182.229 145.897 182.215C145.911 182.215 145.924 182.215 145.938 182.215C147.06 182.215 147.988 183.115 148.016 184.251C148.044 185.401 147.13 186.343 145.98 186.371C145.869 186.371 135.064 186.689 131.227 192.507C130.825 193.117 130.16 193.435 129.495 193.435Z" fill="#606060"/>
<path d="M94.8086 139.977C94.8086 139.977 108.038 142.415 115.961 135.932L94.8086 139.977Z" fill="#FFB0C7"/>
<path d="M100.668 142.511C97.1909 142.511 94.6698 142.068 94.4343 142.013C93.3122 141.805 92.5642 140.724 92.772 139.589C92.9798 138.467 94.0603 137.705 95.1962 137.926C95.3208 137.954 107.594 140.101 114.659 134.325C115.546 133.604 116.862 133.729 117.582 134.616C118.302 135.502 118.177 136.818 117.291 137.538C112.276 141.625 105.544 142.511 100.668 142.511Z" fill="#606060"/>
<path d="M243.239 105.539V172.073C243.239 177.697 238.681 182.254 233.057 182.254H201.321L210.312 188.834C214.246 191.702 212.209 197.922 207.347 197.922H162.326C157.464 197.922 155.428 191.702 159.362 188.834L168.352 182.254H136.616C130.992 182.254 126.434 177.697 126.434 172.073V105.539C126.434 99.9149 130.992 95.3574 136.616 95.3574H233.071C238.681 95.3574 243.239 99.9149 243.239 105.539Z" fill="#91A2B5"/>
<path d="M207.347 199.999H162.326C159.196 199.999 156.55 198.074 155.566 195.095C154.583 192.117 155.594 189 158.129 187.158L161.994 184.332H136.616C129.856 184.332 124.356 178.833 124.356 172.072V105.539C124.356 98.7788 129.856 93.2793 136.616 93.2793H233.071C239.831 93.2793 245.331 98.7788 245.331 105.539V172.072C245.331 178.833 239.831 184.332 233.071 184.332H207.693L211.558 187.158C214.093 189 215.091 192.117 214.121 195.095C213.123 198.074 210.478 199.999 207.347 199.999ZM136.616 97.4351C132.155 97.4351 128.512 101.064 128.512 105.539V172.072C128.512 176.533 132.142 180.176 136.616 180.176H168.352C169.252 180.176 170.042 180.758 170.333 181.603C170.61 182.462 170.305 183.39 169.585 183.93L160.595 190.51C159.32 191.438 159.209 192.824 159.528 193.807C159.847 194.791 160.747 195.843 162.326 195.843H207.347C208.926 195.843 209.827 194.791 210.145 193.807C210.464 192.824 210.353 191.438 209.078 190.51L200.088 183.93C199.368 183.404 199.063 182.462 199.34 181.603C199.617 180.744 200.421 180.176 201.321 180.176H233.057C237.518 180.176 241.161 176.547 241.161 172.072V105.539C241.161 101.064 237.532 97.4351 233.057 97.4351H136.616Z" fill="#606060"/>
<path d="M135.3 109.154V160.824C135.3 163.553 137.503 165.756 140.232 165.756H229.456C232.185 165.756 234.387 163.553 234.387 160.824V109.154C234.387 106.425 232.185 104.223 229.456 104.223H140.232C137.503 104.223 135.3 106.425 135.3 109.154Z" fill="#F9F9F9"/>
<path d="M229.442 168.014H140.218C136.256 168.014 133.028 164.786 133.028 160.824V109.154C133.028 105.192 136.256 101.965 140.218 101.965H229.442C233.403 101.965 236.631 105.192 236.631 109.154V160.824C236.631 164.786 233.417 168.014 229.442 168.014ZM140.231 106.481C138.763 106.481 137.558 107.672 137.558 109.154V160.824C137.558 162.293 138.749 163.498 140.231 163.498H229.456C230.924 163.498 232.129 162.306 232.129 160.824V109.154C232.129 107.686 230.938 106.481 229.456 106.481H140.231Z" fill="#606060"/>
<path d="M199.354 137.137V129.767C199.354 121.747 192.857 115.25 184.837 115.25C176.816 115.25 170.319 121.747 170.319 129.767V137.137C166.884 137.539 164.224 140.462 164.224 143.994C164.224 147.803 167.313 150.906 171.137 150.906H176.885C176.885 155.298 180.445 158.858 184.837 158.858C189.228 158.858 192.788 155.298 192.788 150.906H198.537C202.346 150.906 205.449 147.817 205.449 143.994C205.449 140.448 202.79 137.539 199.354 137.137Z" fill="#FFFF9D"/>
<path d="M201.612 135.349V129.753C201.612 121.261 195.282 114.238 187.095 113.13V111.135C187.095 109.888 186.083 108.877 184.837 108.877C183.59 108.877 182.579 109.888 182.579 111.135V113.13C174.392 114.238 168.061 121.261 168.061 129.753V135.349C164.474 136.624 161.966 140.045 161.966 143.979C161.966 149.035 166.08 153.15 171.137 153.15H174.877C175.902 157.693 179.988 161.101 184.837 161.101C189.685 161.101 193.758 157.693 194.797 153.15H198.537C203.593 153.15 207.707 149.035 207.707 143.979C207.707 140.045 205.2 136.624 201.612 135.349ZM184.837 156.585C182.496 156.585 180.487 155.172 179.614 153.15H190.059C189.173 155.172 187.164 156.585 184.837 156.585ZM198.537 148.634H171.137C168.574 148.634 166.482 146.542 166.482 143.979C166.482 141.624 168.241 139.643 170.582 139.366C171.718 139.228 172.577 138.272 172.577 137.122V129.753C172.577 122.993 178.077 117.493 184.837 117.493C191.597 117.493 197.096 122.993 197.096 129.753V137.122C197.096 138.272 197.955 139.228 199.091 139.366C201.432 139.643 203.191 141.624 203.191 143.979C203.191 146.556 201.1 148.634 198.537 148.634Z" fill="#FFCC6B"/>
<path d="M141.201 83.7356C134.108 83.3616 128.138 85.5364 127.514 92.5735C126.891 99.6106 132.141 105.609 139.233 105.983C146.326 106.357 152.587 100.954 153.197 93.9172C153.806 86.8801 148.293 84.0958 141.201 83.7356Z" fill="url(#paint4_linear_310_858)"/>
<path d="M139.912 108.074C139.649 108.074 139.386 108.074 139.123 108.061C135.106 107.853 131.476 106.093 128.886 103.115C126.309 100.151 125.09 96.3551 125.437 92.3933C126.088 85.0791 131.878 81.1727 141.298 81.6714C146.686 81.9485 150.607 83.4723 152.961 86.1735C154.762 88.2514 155.538 90.9249 155.261 94.111C154.582 101.952 147.767 108.074 139.912 108.074ZM139.635 85.7718C133.374 85.7718 129.994 88.1129 129.578 92.7535C129.329 95.5794 130.202 98.2806 132.016 100.386C133.859 102.506 136.463 103.752 139.331 103.905C145.37 104.223 150.593 99.652 151.119 93.7231C151.299 91.6868 150.87 90.0938 149.817 88.8886C148.252 87.0878 145.232 86.035 141.076 85.8133C140.591 85.7856 140.106 85.7718 139.635 85.7718Z" fill="#606060"/>
<path d="M76.4677 189.444C67.699 189.444 60.6481 182.406 60.6481 173.749V163.096C60.6481 155.699 66.6739 149.673 74.0712 149.673H74.8746C75.9551 149.673 77.0079 149.798 78.033 150.047C78.0884 146.044 76.4954 141.957 74.8331 137.677C73.6556 134.643 72.4227 131.498 71.7716 128.271C69.9154 119.17 74.5283 109.972 74.7222 109.598C75.2486 108.573 76.4954 108.171 77.5205 108.683C78.5455 109.21 78.9473 110.456 78.4209 111.482C78.3793 111.565 74.279 119.793 75.8304 127.44C76.4122 130.321 77.5759 133.299 78.6979 136.167C80.8312 141.652 83.0338 147.332 81.8424 153.288C81.7178 153.926 81.3022 154.452 80.7342 154.743C80.1663 155.034 79.4875 155.034 78.9057 154.757C77.6451 154.147 76.2876 153.829 74.8608 153.829H74.0573C68.9457 153.829 64.79 157.984 64.79 163.096V173.749C64.79 180.121 69.9708 185.288 76.343 185.288C80.6788 185.288 84.1281 181.852 84.1281 177.613L84.0865 171.324C84.0865 170.272 84.8623 169.371 85.9151 169.247L92.966 168.402C95.7365 168.069 98.2023 166.67 99.92 164.481C101.638 162.279 102.386 159.55 102.026 156.779L100.072 141.555C99.9338 140.419 100.737 139.381 101.873 139.228C103.009 139.09 104.048 139.893 104.2 141.029L106.154 156.253C106.652 160.132 105.6 163.955 103.203 167.044C100.807 170.119 97.3434 172.072 93.4647 172.543L88.2562 173.167L88.2839 177.613C88.2977 184.138 82.9922 189.444 76.4677 189.444Z" fill="#606060"/>
<defs>
<linearGradient id="paint0_linear_310_858" x1="91.6785" y1="2.0816" x2="91.6785" y2="164.758" gradientUnits="userSpaceOnUse">
<stop stop-color="#F37D9F"/>
<stop offset="0.0613" stop-color="#F68BAA"/>
<stop offset="0.1675" stop-color="#FA9CB7"/>
<stop offset="0.2997" stop-color="#FDA7C0"/>
<stop offset="0.4851" stop-color="#FFAEC6"/>
<stop offset="1" stop-color="#FFB0C7"/>
</linearGradient>
<linearGradient id="paint1_linear_310_858" x1="39.768" y1="97.7376" x2="81.1189" y2="97.7376" gradientUnits="userSpaceOnUse">
<stop stop-color="#F37D9F"/>
<stop offset="0.2003" stop-color="#F893B0"/>
<stop offset="0.4254" stop-color="#FCA3BD"/>
<stop offset="0.676" stop-color="#FEADC5"/>
<stop offset="1" stop-color="#FFB0C7"/>
</linearGradient>
<linearGradient id="paint2_linear_310_858" x1="83.4774" y1="187.363" x2="83.4774" y2="110.529" gradientUnits="userSpaceOnUse">
<stop stop-color="#F37D9F"/>
<stop offset="0.1961" stop-color="#F892AF"/>
<stop offset="0.4306" stop-color="#FCA3BD"/>
<stop offset="0.6864" stop-color="#FEADC4"/>
<stop offset="1" stop-color="#FFB0C7"/>
</linearGradient>
<linearGradient id="paint3_linear_310_858" x1="129.882" y1="197.78" x2="129.882" y2="139.843" gradientUnits="userSpaceOnUse">
<stop stop-color="#F37D9F"/>
<stop offset="0.1961" stop-color="#F892AF"/>
<stop offset="0.4306" stop-color="#FCA3BD"/>
<stop offset="0.6864" stop-color="#FEADC4"/>
<stop offset="1" stop-color="#FFB0C7"/>
</linearGradient>
<linearGradient id="paint4_linear_310_858" x1="140.355" y1="105.992" x2="140.355" y2="83.6925" gradientUnits="userSpaceOnUse">
<stop stop-color="#F37D9F"/>
<stop offset="0.1215" stop-color="#F688A7"/>
<stop offset="0.434" stop-color="#FB9EB9"/>
<stop offset="0.7326" stop-color="#FEABC3"/>
<stop offset="1" stop-color="#FFB0C7"/>
</linearGradient>
</defs>
</svg>
