<svg width="29" height="34" viewBox="0 0 29 34" fill="none" xmlns="http://www.w3.org/2000/svg">
<path d="M23.0077 5.32667C21.7434 3.85262 21.0467 1.95959 21.0472 0H15.3323V23.4222C15.2882 24.6897 14.7642 25.8903 13.8707 26.7711C12.9772 27.6519 11.7839 28.1443 10.5421 28.1444C7.91582 28.1444 5.73342 25.9533 5.73342 23.2333C5.73342 19.9844 8.80357 17.5478 11.9662 18.5489V12.58C5.58546 11.7111 0 16.7733 0 23.2333C0 29.5233 5.10459 34 10.5236 34C16.331 34 21.0472 29.1833 21.0472 23.2333V11.3522C23.3646 13.0519 26.1469 13.9639 29 13.9589V8.12222C29 8.12222 25.523 8.29222 23.0077 5.32667Z" fill="#FFB0C8"/>
</svg>
