<svg width="34" height="34" viewBox="0 0 34 34" fill="none" xmlns="http://www.w3.org/2000/svg">
<path d="M18.7476 0C20.66 0.00509988 21.6307 0.0152996 22.4687 0.0390991L22.7985 0.0509988C23.1793 0.0645984 23.555 0.081598 24.0089 0.101998C25.8176 0.186996 27.0517 0.472589 28.1345 0.892479C29.2565 1.32427 30.2016 1.90906 31.1468 2.85253C32.0112 3.70234 32.68 4.73029 33.1068 5.86486C33.5267 6.94774 33.8123 8.18191 33.8972 9.99237C33.9176 10.4446 33.9346 10.8202 33.9482 11.2027L33.9584 11.5325C33.9839 12.3689 33.9941 13.3396 33.9975 15.252L33.9992 16.5202V18.7472C34.0034 19.9871 33.9904 21.2271 33.9601 22.4667L33.9499 22.7965C33.9363 23.179 33.9193 23.5546 33.8989 24.0068C33.8139 25.8173 33.525 27.0498 33.1068 28.1343C32.6813 29.2695 32.0122 30.2977 31.1468 31.1467C30.2968 32.0108 29.2689 32.6796 28.1345 33.1067C27.0517 33.5266 25.8176 33.8122 24.0089 33.8972C23.6055 33.9162 23.202 33.9332 22.7985 33.9482L22.4687 33.9584C21.6307 33.9822 20.66 33.9941 18.7476 33.9975L17.4795 33.9992H15.2543C14.0138 34.0035 12.7733 33.9904 11.5332 33.9601L11.2034 33.9499C10.7999 33.9346 10.3964 33.9171 9.99307 33.8972C8.18436 33.8122 6.95022 33.5266 5.86568 33.1067C4.73128 32.6807 3.70376 32.0117 2.85513 31.1467C1.98996 30.2972 1.32049 29.2692 0.893435 28.1343C0.473557 27.0515 0.187971 25.8173 0.102976 24.0068C0.0840365 23.6035 0.0670372 23.2 0.0519782 22.7965L0.0434788 22.4667C0.0121529 21.2271 -0.00201454 19.9871 0.000980851 18.7472V15.252C-0.00376355 14.0121 0.00870381 12.7721 0.0383791 11.5325L0.0502784 11.2027C0.0638777 10.8202 0.0808768 10.4446 0.101276 9.99237C0.186271 8.18191 0.471857 6.94944 0.891735 5.86486C1.31861 4.72913 1.9894 3.70085 2.85683 2.85253C3.70525 1.98806 4.73208 1.31915 5.86568 0.892479C6.95022 0.472589 8.18266 0.186996 9.99307 0.101998C10.4452 0.081598 10.8226 0.0645984 11.2034 0.0509988L11.5332 0.0407989C12.7728 0.0105954 14.0127 -0.00243893 15.2526 0.00169984L18.7476 0ZM17.0001 8.4998C14.7459 8.4998 12.584 9.39531 10.99 10.9893C9.39603 12.5834 8.50055 14.7453 8.50055 16.9996C8.50055 19.2539 9.39603 21.4158 10.99 23.0099C12.584 24.6039 14.7459 25.4994 17.0001 25.4994C19.2543 25.4994 21.4162 24.6039 23.0102 23.0099C24.6042 21.4158 25.4997 19.2539 25.4997 16.9996C25.4997 14.7453 24.6042 12.5834 23.0102 10.9893C21.4162 9.39531 19.2543 8.4998 17.0001 8.4998ZM17.0001 11.8997C17.6698 11.8996 18.333 12.0314 18.9518 12.2876C19.5705 12.5438 20.1328 12.9194 20.6064 13.3928C21.0801 13.8663 21.4558 14.4285 21.7122 15.0472C21.9686 15.6659 22.1006 16.329 22.1007 16.9988C22.1008 17.6685 21.969 18.3317 21.7128 18.9505C21.4566 19.5692 21.0811 20.1315 20.6076 20.6052C20.1341 21.0788 19.572 21.4546 18.9533 21.711C18.3346 21.9673 17.6715 22.0994 17.0018 22.0995C15.6493 22.0995 14.3521 21.5622 13.3958 20.6058C12.4394 19.6493 11.9021 18.3522 11.9021 16.9996C11.9021 15.647 12.4394 14.3499 13.3958 13.3934C14.3521 12.437 15.6493 11.8997 17.0018 11.8997M25.9264 5.94986C25.3628 5.94986 24.8223 6.17374 24.4238 6.57224C24.0253 6.97075 23.8015 7.51124 23.8015 8.07481C23.8015 8.63838 24.0253 9.17887 24.4238 9.57738C24.8223 9.97588 25.3628 10.1998 25.9264 10.1998C26.4899 10.1998 27.0304 9.97588 27.4289 9.57738C27.8274 9.17887 28.0512 8.63838 28.0512 8.07481C28.0512 7.51124 27.8274 6.97075 27.4289 6.57224C27.0304 6.17374 26.4899 5.94986 25.9264 5.94986Z" fill="#FFB0C8"/>
</svg>
