<svg width="110" height="110" viewBox="0 0 110 110" fill="none" xmlns="http://www.w3.org/2000/svg">
<path d="M0 6.06833C0 2.71944 2.71944 0 6.06833 0H103.932C107.281 0 110 2.71944 110 6.06833V103.932C109.998 105.541 109.359 107.083 108.221 108.221C107.083 109.359 105.541 109.998 103.932 110H6.06833C4.45891 110 2.91541 109.361 1.77737 108.223C0.639341 107.085 0 105.541 0 103.932V6.06833ZM46.5789 33.0917C46.2111 32.8463 45.7836 32.7052 45.342 32.6836C44.9004 32.6619 44.4612 32.7604 44.0712 32.9686C43.6811 33.1768 43.3548 33.4869 43.1271 33.8658C42.8993 34.2448 42.7786 34.6784 42.7778 35.1206V74.8794C42.7786 75.3216 42.8993 75.7552 43.1271 76.1342C43.3548 76.5131 43.6811 76.8232 44.0712 77.0314C44.4612 77.2396 44.9004 77.3381 45.342 77.3164C45.7836 77.2948 46.2111 77.1537 46.5789 76.9083L76.395 57.035C76.729 56.8109 77.0027 56.5081 77.192 56.1532C77.3813 55.7983 77.4803 55.4022 77.4803 55C77.4803 54.5978 77.3813 54.2017 77.192 53.8468C77.0027 53.4919 76.729 53.1891 76.395 52.965L46.5789 33.0917Z" fill="#606060"/>
</svg>
